_________________________  Visit us at _________________________
  
http://p2pdl.com  ____________________________  http://p2pdl.com

Zero Dark Thirty 2012 720p BRRip 720p x264 AAC - PRiSTiNE

Genre: Drama | History | Thriller
Plot: TA chronicle of the decade-long hunt for al-Qaeda terrorist leader Osama bin Laden after the September 2001 attacks, and his death at the hands of the Navy S.E.A.L. Team 6 in May 2011.
Director: Kathryn Bigelow
Stars: Jessica Chastain, Joel Edgerton, Chris Pratt
Rated: Rated R for strong violence including brutal disturbing images, and for language.

Info: 
http://www.imdb.com/title/tt1790885/

General
Complete name                  : Zero Dark Thirty 2012 BRRip 720p x264 AAC - PRiSTiNE.mp4
Format                         : MPEG-4
Format profile                 : Base Media
Codec ID                       : isom
File size                      : 882 MiB
Duration                       : 2h 36mn
Overall bit rate mode          : Variable
Overall bit rate               : 786 Kbps

Source                         : 1080p BluRay Sector7 (Thanks)

Video
Format                         : AVC
Format/Info                    : Advanced Video Codec
Format profile                 : High 10@L4.1
Bit rate                       : 699 Kbps
Maximum bit rate               : 5 844 Kbps
Width                          : 1 280 pixels
Height                         : 688 pixels
Display aspect ratio           : 1.85:1
Frame rate mode                : Constant
Frame rate                     : 23.976 fps
Bit depth                      : 10 bits
Scan type                      : Progressive
Bits/(Pixel*Frame)             : 0.033
Stream size                    : 784 MiB (89%)
Writing library                : x264 core 129 r2245 bc13772

Audio
Format                         : AAC
Format/Info                    : Advanced Audio Codec
Bit rate mode                  : Variable
Bit rate                       : 83.7 Kbps
Channel(s)                     : 2 channels
Channel positions              : Front: L R
Sampling rate                  : 48.0 KHz / 24.0 KHz
Stream size                    : 94.0 MiB (11%)
Language                       : English

Subtitle                       : Yes ( English)


Screens: 
http://ultraimg.com/images/VlJ6D.jpg 
http://ultraimg.com/images/kFSqW.jpg 
http://ultraimg.com/images/sjEMe.jpg 
http://ultraimg.com/images/7tjOQ.jpg 
http://ultraimg.com/images/pD7yW.jpg

Thumbs: 
http://ultraimg.com/images/ompDI.jpg

----------------------------------------------------------------------------------------------------
Encoded using revolutionary 10bit encoding, which enables us to provide you more crispier 
and sharper images at small sizes, just make sure you follow our instructions without a fault.
Recommend to you to use latest version of VLC player. Install K-Lite Codec Pack or shark007 codecs
in case of any kind of problem in playback (For non-VLC Media Player users). Alternatively, install
Core AVC codecs, the fastest decoder that there is coupled with Community Center Codec Pack and play
on Windows Media Player Classic. Check sample to be sure.
Enjoy!